<?xml version="1.0" encoding="UTF-8" standalone="no"?>
<!DOCTYPE svg PUBLIC "-//W3C//DTD SVG 1.1//EN" "http://www.w3.org/Graphics/SVG/1.1/DTD/svg11.dtd">
<svg width="100%" height="100%" viewBox="0 0 3800 1800" version="1.1" xmlns="http://www.w3.org/2000/svg" xmlns:xlink="http://www.w3.org/1999/xlink" xml:space="preserve" xmlns:serif="http://www.serif.com/" style="fill-rule:evenodd;clip-rule:evenodd;stroke-linejoin:round;stroke-miterlimit:2;">
    <g transform="matrix(0.755718,0,0,0.755718,477.396,299.232)">
        <g transform="matrix(1,0,0,1,-172.083,317.882)">
            <g transform="matrix(916.667,0,0,916.667,595.833,834.58)">
                <path d="M0.404,-0l-0.038,-0.161l-0.2,0l-0.038,0.161l-0.131,-0l0.192,-0.691l0.158,0l0.191,0.691l-0.134,-0Zm-0.216,-0.259l0.156,0l-0.078,-0.333l-0.078,0.333Z" style="fill:#fff;fill-rule:nonzero;"/>
            </g>
            <g transform="matrix(916.667,0,0,916.667,1049.58,834.58)">
                <path d="M0.329,-0.544c0.042,0 0.075,0.014 0.099,0.042c0.024,0.028 0.036,0.066 0.036,0.114l-0,0.388l-0.125,-0l-0,-0.371c-0,-0.028 -0.005,-0.048 -0.014,-0.059c-0.009,-0.012 -0.022,-0.018 -0.039,-0.018c-0.018,0 -0.035,0.007 -0.05,0.02c-0.015,0.013 -0.03,0.033 -0.045,0.059l-0,0.369l-0.125,-0l-0,-0.529l0.109,0l0.009,0.069c0.019,-0.027 0.041,-0.048 0.064,-0.062c0.024,-0.015 0.051,-0.022 0.081,-0.022Z" style="fill:#fff;fill-rule:nonzero;"/>
            </g>
            <g transform="matrix(916.667,0,0,916.667,1494.17,834.58)">
                <path d="M0.191,-0.529l0,0.529l-0.125,-0l0,-0.529l0.125,0Zm-0.062,-0.266c0.023,0 0.041,0.007 0.055,0.022c0.015,0.014 0.022,0.032 0.022,0.054c0,0.022 -0.007,0.04 -0.021,0.054c-0.015,0.015 -0.033,0.022 -0.056,0.022c-0.023,-0 -0.041,-0.007 -0.056,-0.022c-0.014,-0.014 -0.021,-0.032 -0.021,-0.054c-0,-0.022 0.007,-0.04 0.021,-0.054c0.015,-0.015 0.033,-0.022 0.056,-0.022Z" style="fill:#fff;fill-rule:nonzero;"/>
            </g>
            <g transform="matrix(916.667,0,0,916.667,1693.08,834.58)">
                <path d="M0.578,-0.544c0.038,0 0.069,0.014 0.092,0.043c0.023,0.028 0.035,0.066 0.035,0.113l0,0.388l-0.124,-0l0,-0.372c0,-0.051 -0.016,-0.077 -0.047,-0.077c-0.017,0 -0.032,0.007 -0.046,0.02c-0.014,0.013 -0.028,0.032 -0.041,0.057l0,0.372l-0.123,-0l0,-0.372c0,-0.051 -0.016,-0.077 -0.047,-0.077c-0.017,0 -0.033,0.007 -0.047,0.02c-0.014,0.013 -0.027,0.032 -0.04,0.057l0,0.372l-0.124,-0l0,-0.529l0.109,0l0.009,0.068c0.037,-0.055 0.082,-0.083 0.137,-0.083c0.027,0 0.051,0.008 0.071,0.024c0.02,0.015 0.035,0.037 0.044,0.065c0.019,-0.029 0.039,-0.051 0.063,-0.066c0.022,-0.015 0.049,-0.023 0.079,-0.023Z" style="fill:#fff;fill-rule:nonzero;"/>
            </g>
            <g transform="matrix(916.667,0,0,916.667,2359.5,834.58)">
                <path d="M0.468,-0.277c0,0.006 -0.001,0.023 -0.003,0.051l-0.299,0c0.004,0.053 0.015,0.091 0.034,0.113c0.019,0.022 0.045,0.033 0.078,0.033c0.021,0 0.041,-0.004 0.06,-0.011c0.019,-0.007 0.039,-0.019 0.06,-0.034l0.052,0.071c-0.053,0.046 -0.113,0.069 -0.181,0.069c-0.074,-0 -0.131,-0.024 -0.171,-0.073c-0.04,-0.049 -0.06,-0.116 -0.06,-0.203c-0,-0.085 0.019,-0.154 0.057,-0.206c0.039,-0.051 0.092,-0.077 0.161,-0.077c0.067,0 0.119,0.023 0.156,0.069c0.037,0.046 0.056,0.112 0.056,0.198Zm-0.123,-0.036c-0,-0.048 -0.007,-0.084 -0.021,-0.107c-0.014,-0.024 -0.036,-0.036 -0.067,-0.036c-0.028,0 -0.05,0.012 -0.065,0.035c-0.015,0.023 -0.023,0.061 -0.026,0.114l0.179,0l0,-0.006Z" style="fill:#fff;fill-rule:nonzero;"/>
            </g>
        </g>
        <g transform="matrix(1,0,0,1,2019.97,112.347)">
            <g transform="matrix(704.167,0,0,704.167,595.833,834.58)">
                <path d="M0.51,-0.696l-0.02,0.15l-0.137,0l0,0.546l-0.202,-0l0,-0.546l-0.148,0l0,-0.15l0.507,0Z" style="fill:#fff;fill-rule:nonzero;"/>
            </g>
            <g transform="matrix(704.167,0,0,704.167,932.424,834.58)">
                <path d="M0.556,-0.696l-0.151,0.696l-0.264,-0l-0.163,-0.696l0.207,0l0.09,0.554l0.08,-0.554l0.201,0Z" style="fill:#fff;fill-rule:nonzero;"/>
            </g>
        </g>
        <g transform="matrix(1.32324,0,0,1.32324,-767.32,-286.074)">
            <path d="M3026.28,978.772c0,-5.78 -4.692,-10.472 -10.472,-10.472l-368.884,0c-5.78,0 -10.472,4.692 -10.472,10.472l-0,99.895c-0,5.78 4.692,10.472 10.472,10.472l368.884,-0c5.78,-0 10.472,-4.692 10.472,-10.472l0,-99.895Zm-73.233,103.258c-2.525,-0 -4.686,-0.899 -6.484,-2.697c-1.798,-1.798 -2.697,-3.96 -2.697,-6.485l-0,-82.632c-0,-2.525 0.899,-4.687 2.697,-6.485c1.798,-1.798 3.959,-2.697 6.484,-2.697l36.726,0c2.525,0 4.686,0.899 6.484,2.697c1.798,1.798 2.697,3.96 2.697,6.485l0,82.632c0,2.525 -0.899,4.687 -2.697,6.485c-1.798,1.798 -3.959,2.697 -6.484,2.697l-36.726,-0Zm-262.666,-0.719c-3.691,0.853 -7.115,0.154 -10.271,-2.098c-3.157,-2.251 -5.181,-5.305 -6.072,-9.16c-0.986,-4.266 -0.393,-8.335 1.779,-12.208c2.173,-3.872 4.334,-7.699 6.484,-11.48c1.791,-3.093 3.202,-6.336 4.232,-9.729c1.031,-3.392 2.432,-6.676 4.204,-9.851c1.312,-2.55 2.996,-4.798 5.052,-6.742c2.057,-1.945 4.479,-3.24 7.269,-3.885c2.789,-0.644 5.524,-0.586 8.207,0.177c2.682,0.762 5.172,2.001 7.47,3.717c2.904,2.094 5.589,4.455 8.054,7.082c2.466,2.627 5.192,4.979 8.177,7.054c3.592,2.453 7.214,4.943 10.866,7.469c3.652,2.526 5.971,5.921 6.957,10.187c0.892,3.856 0.414,7.488 -1.434,10.896c-1.848,3.409 -4.617,5.54 -8.309,6.394c-4.429,1.024 -8.903,1.669 -13.422,1.936c-4.518,0.267 -8.992,0.913 -13.422,1.937c-4.43,1.024 -8.733,2.408 -12.91,4.152c-4.177,1.743 -8.481,3.127 -12.911,4.152Zm110.076,-94.009l11.435,22.869l17.152,0l-11.434,-22.869l11.434,-0l11.435,22.869l17.152,0l-11.435,-22.869l11.435,-0l11.435,22.869l17.152,0l-11.435,-22.869l17.152,-0c3.145,-0 5.836,1.12 8.076,3.359c2.239,2.239 3.359,4.931 3.359,8.076l-0,68.608c-0,3.144 -1.12,5.836 -3.359,8.076c-2.24,2.239 -4.931,3.359 -8.076,3.359l-91.478,-0c-3.144,-0 -5.836,-1.12 -8.075,-3.359c-2.24,-2.24 -3.359,-4.932 -3.359,-8.076l-0,-68.608c-0,-3.145 1.119,-5.837 3.359,-8.076c2.239,-2.239 4.931,-3.359 8.075,-3.359Zm152.59,85.546l36.726,0l-0,-82.632l-36.726,-0l0,82.632Zm9.181,-4.59c1.301,-0 2.391,-0.44 3.271,-1.32c0.88,-0.88 1.32,-1.97 1.32,-3.271c0,-1.301 -0.44,-2.391 -1.32,-3.271c-0.88,-0.88 -1.97,-1.32 -3.271,-1.32c-1.3,0 -2.391,0.44 -3.27,1.32c-0.88,0.88 -1.32,1.97 -1.32,3.271c-0,1.301 0.44,2.391 1.32,3.271c0.879,0.88 1.97,1.32 3.27,1.32Zm18.363,-0c1.301,-0 2.391,-0.44 3.271,-1.32c0.88,-0.88 1.32,-1.97 1.32,-3.271c-0,-1.301 -0.44,-2.391 -1.32,-3.271c-0.88,-0.88 -1.97,-1.32 -3.271,-1.32c-1.3,0 -2.391,0.44 -3.271,1.32c-0.88,0.88 -1.319,1.97 -1.319,3.271c-0,1.301 0.439,2.391 1.319,3.271c0.88,0.88 1.971,1.32 3.271,1.32Zm-180.134,-46.652l0,45.739l91.478,-0l0,-45.739l-91.478,0Zm161.771,32.88c1.301,-0 2.391,-0.44 3.271,-1.32c0.88,-0.88 1.32,-1.97 1.32,-3.271c0,-1.301 -0.44,-2.391 -1.32,-3.271c-0.88,-0.88 -1.97,-1.32 -3.271,-1.32c-1.3,0 -2.391,0.44 -3.27,1.32c-0.88,0.88 -1.32,1.97 -1.32,3.271c-0,1.301 0.44,2.391 1.32,3.271c0.879,0.88 1.97,1.32 3.27,1.32Zm18.363,-0c1.301,-0 2.391,-0.44 3.271,-1.32c0.88,-0.88 1.32,-1.97 1.32,-3.271c-0,-1.301 -0.44,-2.391 -1.32,-3.271c-0.88,-0.88 -1.97,-1.32 -3.271,-1.32c-1.3,0 -2.391,0.44 -3.271,1.32c-0.88,0.88 -1.319,1.97 -1.319,3.271c-0,1.301 0.439,2.391 1.319,3.271c0.88,0.88 1.971,1.32 3.271,1.32Zm-18.363,-13.773c1.301,0 2.391,-0.44 3.271,-1.319c0.88,-0.88 1.32,-1.971 1.32,-3.271c0,-1.301 -0.44,-2.391 -1.32,-3.271c-0.88,-0.88 -1.97,-1.32 -3.271,-1.32c-1.3,0 -2.391,0.44 -3.27,1.32c-0.88,0.88 -1.32,1.97 -1.32,3.271c-0,1.3 0.44,2.391 1.32,3.271c0.879,0.879 1.97,1.319 3.27,1.319Zm18.363,0c1.301,0 2.391,-0.44 3.271,-1.319c0.88,-0.88 1.32,-1.971 1.32,-3.271c-0,-1.301 -0.44,-2.391 -1.32,-3.271c-0.88,-0.88 -1.97,-1.32 -3.271,-1.32c-1.3,0 -2.391,0.44 -3.271,1.32c-0.88,0.88 -1.319,1.97 -1.319,3.271c-0,1.3 0.439,2.391 1.319,3.271c0.88,0.879 1.971,1.319 3.271,1.319Zm-312.172,-6.175c-3.446,0.796 -6.633,0.28 -9.562,-1.549c-2.929,-1.829 -4.791,-4.466 -5.588,-7.911c-0.797,-3.446 -0.281,-6.633 1.548,-9.562c1.829,-2.929 4.466,-4.792 7.912,-5.588c3.445,-0.797 6.632,-0.281 9.561,1.548c2.929,1.829 4.792,4.466 5.589,7.912c0.796,3.445 0.28,6.632 -1.549,9.561c-1.829,2.929 -4.466,4.792 -7.911,5.589Zm302.991,-12.187c3.825,-0 7.077,-1.339 9.755,-4.017c2.678,-2.678 4.017,-5.93 4.017,-9.756c-0,-3.825 -1.339,-7.077 -4.017,-9.755c-2.678,-2.678 -5.93,-4.017 -9.755,-4.017c-3.826,0 -7.078,1.339 -9.755,4.017c-2.678,2.678 -4.017,5.93 -4.017,9.755c-0,3.826 1.339,7.078 4.017,9.756c2.677,2.678 5.929,4.017 9.755,4.017Zm-229.162,-4.884c-3.445,0.797 -6.632,0.281 -9.561,-1.548c-2.929,-1.829 -4.792,-4.466 -5.589,-7.912c-0.796,-3.445 -0.28,-6.632 1.549,-9.561c1.829,-2.929 4.466,-4.792 7.911,-5.589c3.446,-0.796 6.633,-0.28 9.562,1.549c2.929,1.829 4.792,4.466 5.588,7.911c0.797,3.446 0.281,6.633 -1.548,9.562c-1.829,2.929 -4.466,4.792 -7.912,5.588Zm229.162,-4.298c-1.301,0 -2.391,-0.44 -3.271,-1.32c-0.88,-0.88 -1.32,-1.97 -1.32,-3.271c0,-1.3 0.44,-2.391 1.32,-3.27c0.88,-0.88 1.97,-1.32 3.271,-1.32c1.301,-0 2.391,0.44 3.271,1.32c0.88,0.879 1.32,1.97 1.32,3.27c-0,1.301 -0.44,2.391 -1.32,3.271c-0.88,0.88 -1.97,1.32 -3.271,1.32Zm-285.394,-3.44c-3.446,0.796 -6.633,0.28 -9.562,-1.549c-2.929,-1.829 -4.792,-4.466 -5.588,-7.911c-0.797,-3.446 -0.281,-6.633 1.548,-9.562c1.829,-2.929 4.466,-4.792 7.911,-5.588c3.446,-0.797 6.633,-0.281 9.562,1.548c2.929,1.829 4.792,4.466 5.588,7.912c0.797,3.445 0.281,6.632 -1.548,9.561c-1.829,2.929 -4.466,4.792 -7.911,5.589Zm29.531,-6.829c-3.445,0.797 -6.632,0.281 -9.561,-1.548c-2.929,-1.829 -4.792,-4.466 -5.589,-7.911c-0.796,-3.446 -0.28,-6.633 1.549,-9.562c1.829,-2.929 4.466,-4.792 7.911,-5.588c3.446,-0.797 6.633,-0.281 9.562,1.548c2.929,1.829 4.792,4.466 5.588,7.911c0.797,3.446 0.281,6.633 -1.548,9.562c-1.829,2.929 -4.466,4.792 -7.912,5.588Z" style="fill:#fff;"/>
        </g>
    </g>
</svg>
